<?xml version="1.0" encoding="UTF-8" standalone="no"?>
<!-- Created with Inkscape (http://www.inkscape.org/) -->

<svg
   xmlns:dc="http://purl.org/dc/elements/1.1/"
   xmlns:cc="http://creativecommons.org/ns#"
   xmlns:rdf="http://www.w3.org/1999/02/22-rdf-syntax-ns#"
   xmlns:svg="http://www.w3.org/2000/svg"
   xmlns="http://www.w3.org/2000/svg"
   xmlns:sodipodi="http://sodipodi.sourceforge.net/DTD/sodipodi-0.dtd"
   xmlns:inkscape="http://www.inkscape.org/namespaces/inkscape"
   width="124"
   height="130"
   id="svg2997"
   version="1.1"
   inkscape:version="0.48.4 r9939"
   sodipodi:docname="mae_small.pdf"
   inkscape:export-filename="/sda7/data/Uni/Semester 10/Design/Logos/actemotion_lens4.png"
   inkscape:export-xdpi="262.41354"
   inkscape:export-ydpi="262.41354">
  <defs
     id="defs2999" />
  <sodipodi:namedview
     id="base"
     pagecolor="#ffffff"
     bordercolor="#666666"
     borderopacity="1.0"
     inkscape:pageopacity="0.0"
     inkscape:pageshadow="2"
     inkscape:zoom="1.7275421"
     inkscape:cx="295.34986"
     inkscape:cy="204.73325"
     inkscape:document-units="px"
     inkscape:current-layer="layer1"
     showgrid="false"
     showguides="true"
     inkscape:guide-bbox="true"
     inkscape:window-width="1855"
     inkscape:window-height="1056"
     inkscape:window-x="65"
     inkscape:window-y="24"
     inkscape:window-maximized="1" />
  <metadata
     id="metadata3002">
    <rdf:RDF>
      <cc:Work
         rdf:about="">
        <dc:format>image/svg+xml</dc:format>
        <dc:type
           rdf:resource="http://purl.org/dc/dcmitype/StillImage" />
        <dc:title></dc:title>
      </cc:Work>
    </rdf:RDF>
  </metadata>
  <g
     inkscape:label="Ebene 1"
     inkscape:groupmode="layer"
     id="layer1"
     transform="translate(0,-922.3618)">
    <path
       style="fill:none;stroke:#000000;stroke-width:3.5999999;stroke-linecap:butt;stroke-linejoin:miter;stroke-miterlimit:4;stroke-opacity:1;stroke-dasharray:none"
       d="m 72.030825,1003.149 4.63086,10.7089 -2.31543,26.338"
       id="path3909"
       inkscape:connector-curvature="0" />
    <path
       style="fill:none;stroke:#000000;stroke-width:3.59452868;stroke-linecap:butt;stroke-linejoin:miter;stroke-miterlimit:4;stroke-opacity:1;stroke-dasharray:none"
       d="m 58.622145,985.46039 14.81889,17.97941"
       id="path4237"
       inkscape:connector-curvature="0"
       inkscape:export-filename="/sda7/data/Uni/Semester 10/Design/Logos/actemotion_lens.png"
       inkscape:export-xdpi="195.24907"
       inkscape:export-ydpi="195.24907"
       sodipodi:nodetypes="cc" />
    <path
       style="fill:none;stroke:#000000;stroke-width:3.59452868;stroke-linecap:butt;stroke-linejoin:miter;stroke-miterlimit:4;stroke-opacity:1;stroke-dasharray:none"
       d="m 57.895935,940.79881 1.08931,43.93537 -16.6729,18.65212 -9.93323,13.9447 -0.72357,20.26"
       id="path4235"
       inkscape:connector-curvature="0"
       inkscape:export-filename="/sda7/data/Uni/Semester 10/Design/Logos/actemotion_lens.png"
       inkscape:export-xdpi="195.24907"
       inkscape:export-ydpi="195.24907"
       sodipodi:nodetypes="ccc" />
    <path
       style="fill:none;stroke:#000000;stroke-width:3.5;stroke-linecap:butt;stroke-linejoin:miter;stroke-miterlimit:4;stroke-opacity:1;stroke-dasharray:none"
       d="m 78.603565,959.77778 15.5618,4.62272 16.389905,-11.23586"
       id="path3905"
       inkscape:connector-curvature="0"
       sodipodi:nodetypes="ccc" />
    <path
       style="fill:none;stroke:#000000;stroke-width:3.5999999;stroke-linecap:butt;stroke-linejoin:miter;stroke-miterlimit:4;stroke-opacity:1;stroke-dasharray:none"
       d="m 41.103565,964.77778 -13.92858,10 -17.5000005,3.21428"
       id="path3907"
       inkscape:connector-curvature="0" />
    <path
       style="fill:none;stroke:#000000;stroke-width:3.59452868;stroke-linecap:butt;stroke-linejoin:miter;stroke-miterlimit:4;stroke-opacity:1;stroke-dasharray:none"
       d="m 42.674615,962.89758 32.9655,-2.50596"
       id="path4229"
       inkscape:connector-curvature="0"
       sodipodi:nodetypes="cc"
       inkscape:export-filename="/sda7/data/Uni/Semester 10/Design/Logos/actemotion_lens.png"
       inkscape:export-xdpi="195.24907"
       inkscape:export-ydpi="195.24907" />
    <path
       style="fill:none;stroke:#000000;stroke-width:3.59452868;stroke-linecap:butt;stroke-linejoin:miter;stroke-miterlimit:4;stroke-opacity:1;stroke-dasharray:none"
       d="m 43.031765,962.09897 15.59038,22.63521"
       id="path4231"
       inkscape:connector-curvature="0"
       sodipodi:nodetypes="cc"
       inkscape:export-filename="/sda7/data/Uni/Semester 10/Design/Logos/actemotion_lens.png"
       inkscape:export-xdpi="195.24907"
       inkscape:export-ydpi="195.24907" />
    <path
       style="fill:none;stroke:#000000;stroke-width:3.59452868;stroke-linecap:butt;stroke-linejoin:miter;stroke-miterlimit:4;stroke-opacity:1;stroke-dasharray:none"
       d="m 58.803695,985.64194 16.78325,-26.36896"
       id="path4233"
       inkscape:connector-curvature="0"
       sodipodi:nodetypes="cc"
       inkscape:export-filename="/sda7/data/Uni/Semester 10/Design/Logos/actemotion_lens.png"
       inkscape:export-xdpi="195.24907"
       inkscape:export-ydpi="195.24907" />
    <path
       sodipodi:type="arc"
       style="fill:#63a2ff;fill-opacity:1;stroke:#000000;stroke-width:2;stroke-miterlimit:4;stroke-opacity:1;stroke-dasharray:none"
       id="path4177"
       sodipodi:cx="298.50009"
       sodipodi:cy="358.89246"
       sodipodi:rx="4.5456862"
       sodipodi:ry="4.5456862"
       d="m 303.04578,358.89246 c 0,2.51051 -2.03518,4.54568 -4.54569,4.54568 -2.51051,0 -4.54568,-2.03517 -4.54568,-4.54568 0,-2.51052 2.03517,-4.54569 4.54568,-4.54569 2.51051,0 4.54569,2.03517 4.54569,4.54569 z"
       transform="matrix(1.495589,0,0,1.495589,-403.57729,427.51737)"
       inkscape:export-filename="/sda7/data/Uni/Semester 10/Design/Logos/actemotion_lens.png"
       inkscape:export-xdpi="195.24907"
       inkscape:export-ydpi="195.24907" />
    <path
       transform="matrix(1.4961263,0,0,1.4961263,-371.00691,422.19616)"
       sodipodi:type="arc"
       style="fill:#63a2ff;fill-opacity:1;stroke:#000000;stroke-width:2;stroke-miterlimit:4;stroke-opacity:1;stroke-dasharray:none"
       id="path4177-5"
       sodipodi:cx="298.50009"
       sodipodi:cy="358.89246"
       sodipodi:rx="4.5456862"
       sodipodi:ry="4.5456862"
       d="m 303.04578,358.89246 c 0,2.51051 -2.03518,4.54568 -4.54569,4.54568 -2.51051,0 -4.54568,-2.03517 -4.54568,-4.54568 0,-2.51052 2.03517,-4.54569 4.54568,-4.54569 2.51051,0 4.54569,2.03517 4.54569,4.54569 z"
       inkscape:export-filename="/sda7/data/Uni/Semester 10/Design/Logos/actemotion_lens.png"
       inkscape:export-xdpi="195.24907"
       inkscape:export-ydpi="195.24907" />
    <path
       transform="matrix(2.3059635,0,0,2.3059635,-630.15561,114.08253)"
       sodipodi:type="arc"
       style="fill:#63a2ff;fill-opacity:1;stroke:#000000;stroke-width:1.56116951;stroke-miterlimit:4;stroke-opacity:1;stroke-dasharray:none"
       id="path4177-69"
       sodipodi:cx="298.50009"
       sodipodi:cy="358.89246"
       sodipodi:rx="4.5456862"
       sodipodi:ry="4.5456862"
       d="m 303.04578,358.89246 c 0,2.51051 -2.03518,4.54568 -4.54569,4.54568 -2.51051,0 -4.54568,-2.03517 -4.54568,-4.54568 0,-2.51052 2.03517,-4.54569 4.54568,-4.54569 2.51051,0 4.54569,2.03517 4.54569,4.54569 z"
       inkscape:export-filename="/sda7/data/Uni/Semester 10/Design/Logos/actemotion_lens.png"
       inkscape:export-xdpi="195.24907"
       inkscape:export-ydpi="195.24907" />
    <path
       transform="matrix(1.4110592,0,0,1.4110592,-348.56992,496.28332)"
       sodipodi:type="arc"
       style="fill:#63a2ff;fill-opacity:1;stroke:#000000;stroke-width:2;stroke-miterlimit:4;stroke-opacity:1;stroke-dasharray:none"
       id="path4177-6"
       sodipodi:cx="298.50009"
       sodipodi:cy="358.89246"
       sodipodi:rx="4.5456862"
       sodipodi:ry="4.5456862"
       d="m 303.04578,358.89246 c 0,2.51051 -2.03518,4.54568 -4.54569,4.54568 -2.51051,0 -4.54568,-2.03517 -4.54568,-4.54568 0,-2.51052 2.03517,-4.54569 4.54568,-4.54569 2.51051,0 4.54569,2.03517 4.54569,4.54569 z"
       inkscape:export-filename="/sda7/data/Uni/Semester 10/Design/Logos/actemotion_lens.png"
       inkscape:export-xdpi="195.24907"
       inkscape:export-ydpi="195.24907" />
    <path
       transform="matrix(1.4437965,0,0,1.4437965,-388.13428,484.68289)"
       sodipodi:type="arc"
       style="fill:#63a2ff;fill-opacity:1;stroke:#000000;stroke-width:2;stroke-miterlimit:4;stroke-opacity:1;stroke-dasharray:none"
       id="path4177-1"
       sodipodi:cx="298.50009"
       sodipodi:cy="358.89246"
       sodipodi:rx="4.5456862"
       sodipodi:ry="4.5456862"
       d="m 303.04578,358.89246 c 0,2.51051 -2.03518,4.54568 -4.54569,4.54568 -2.51051,0 -4.54568,-2.03517 -4.54568,-4.54568 0,-2.51052 2.03517,-4.54569 4.54568,-4.54569 2.51051,0 4.54569,2.03517 4.54569,4.54569 z"
       inkscape:export-filename="/sda7/data/Uni/Semester 10/Design/Logos/actemotion_lens.png"
       inkscape:export-xdpi="195.24907"
       inkscape:export-ydpi="195.24907" />
    <path
       transform="matrix(1.4437965,0,0,1.4437965,-399.51268,518.39584)"
       sodipodi:type="arc"
       style="fill:#63a2ff;fill-opacity:1;stroke:#000000;stroke-width:2;stroke-miterlimit:4;stroke-opacity:1;stroke-dasharray:none"
       id="path4177-1-98-2-3"
       sodipodi:cx="298.50009"
       sodipodi:cy="358.89246"
       sodipodi:rx="4.5456862"
       sodipodi:ry="4.5456862"
       d="m 303.04578,358.89246 c 0,2.51051 -2.03518,4.54568 -4.54569,4.54568 -2.51051,0 -4.54568,-2.03517 -4.54568,-4.54568 0,-2.51052 2.03517,-4.54569 4.54568,-4.54569 2.51051,0 4.54569,2.03517 4.54569,4.54569 z"
       inkscape:export-filename="/sda7/data/Uni/Semester 10/Design/Logos/actemotion_lens.png"
       inkscape:export-xdpi="195.24907"
       inkscape:export-ydpi="195.24907" />
    <path
       transform="matrix(1.4437965,0,0,1.4437965,-356.65554,521.96727)"
       sodipodi:type="arc"
       style="fill:#63a2ff;fill-opacity:1;stroke:#000000;stroke-width:2;stroke-miterlimit:4;stroke-opacity:1;stroke-dasharray:none"
       id="path4177-1-98-2-3-0"
       sodipodi:cx="298.50009"
       sodipodi:cy="358.89246"
       sodipodi:rx="4.5456862"
       sodipodi:ry="4.5456862"
       d="m 303.04578,358.89246 c 0,2.51051 -2.03518,4.54568 -4.54569,4.54568 -2.51051,0 -4.54568,-2.03517 -4.54568,-4.54568 0,-2.51052 2.03517,-4.54569 4.54568,-4.54569 2.51051,0 4.54569,2.03517 4.54569,4.54569 z"
       inkscape:export-filename="/sda7/data/Uni/Semester 10/Design/Logos/actemotion_lens.png"
       inkscape:export-xdpi="195.24907"
       inkscape:export-ydpi="195.24907" />
    <path
       transform="matrix(1.4437965,0,0,1.4437965,-320.4838,435.43837)"
       sodipodi:type="arc"
       style="fill:#63a2ff;fill-opacity:1;stroke:#000000;stroke-width:2;stroke-miterlimit:4;stroke-opacity:1;stroke-dasharray:none"
       id="path4177-1-8"
       sodipodi:cx="298.50009"
       sodipodi:cy="358.89246"
       sodipodi:rx="4.5456862"
       sodipodi:ry="4.5456862"
       d="m 303.04578,358.89246 c 0,2.51051 -2.03518,4.54568 -4.54569,4.54568 -2.51051,0 -4.54568,-2.03517 -4.54568,-4.54568 0,-2.51052 2.03517,-4.54569 4.54568,-4.54569 2.51051,0 4.54569,2.03517 4.54569,4.54569 z"
       inkscape:export-filename="/sda7/data/Uni/Semester 10/Design/Logos/actemotion_lens.png"
       inkscape:export-xdpi="195.24907"
       inkscape:export-ydpi="195.24907" />
    <path
       transform="matrix(1.4437965,0,0,1.4437965,-418.0239,459.46726)"
       sodipodi:type="arc"
       style="fill:#63a2ff;fill-opacity:1;stroke:#000000;stroke-width:2;stroke-miterlimit:4;stroke-opacity:1;stroke-dasharray:none"
       id="path4177-1-4"
       sodipodi:cx="298.50009"
       sodipodi:cy="358.89246"
       sodipodi:rx="4.5456862"
       sodipodi:ry="4.5456862"
       d="m 303.04578,358.89246 c 0,2.51051 -2.03518,4.54568 -4.54569,4.54568 -2.51051,0 -4.54568,-2.03517 -4.54568,-4.54568 0,-2.51052 2.03517,-4.54569 4.54568,-4.54569 2.51051,0 4.54569,2.03517 4.54569,4.54569 z"
       inkscape:export-filename="/sda7/data/Uni/Semester 10/Design/Logos/actemotion_lens.png"
       inkscape:export-xdpi="195.24907"
       inkscape:export-ydpi="195.24907" />
    <path
       transform="matrix(1.4110592,0,0,1.4110592,-361.8978,479.15331)"
       sodipodi:type="arc"
       style="fill:#63a2ff;fill-opacity:1;stroke:#000000;stroke-width:2;stroke-miterlimit:4;stroke-opacity:1;stroke-dasharray:none"
       id="path4177-6-0"
       sodipodi:cx="298.50009"
       sodipodi:cy="358.89246"
       sodipodi:rx="4.5456862"
       sodipodi:ry="4.5456862"
       d="m 303.04578,358.89246 c 0,2.51051 -2.03518,4.54568 -4.54569,4.54568 -2.51051,0 -4.54568,-2.03517 -4.54568,-4.54568 0,-2.51052 2.03517,-4.54569 4.54568,-4.54569 2.51051,0 4.54569,2.03517 4.54569,4.54569 z"
       inkscape:export-filename="/sda7/data/Uni/Semester 10/Design/Logos/actemotion_lens.png"
       inkscape:export-xdpi="195.24907"
       inkscape:export-ydpi="195.24907" />
  </g>
</svg>
